<svg width="25" height="25" viewBox="0 0 25 25" fill="none" xmlns="http://www.w3.org/2000/svg">
<g clip-path="url(#clip0_0_96)">
<path d="M20.8714 4.91725C20.3606 4.40625 19.7542 4.00089 19.0867 3.72433C18.4193 3.44777 17.7039 3.30542 16.9814 3.30542C16.2589 3.30542 15.5435 3.44777 14.876 3.72433C14.2086 4.00089 13.6021 4.40625 13.0914 4.91725L12.0314 5.97725L10.9714 4.91725C9.93968 3.88555 8.5404 3.30595 7.08137 3.30595C5.62234 3.30595 4.22306 3.88555 3.19137 4.91725C2.15968 5.94894 1.58008 7.34821 1.58008 8.80724C1.58008 10.2663 2.15968 11.6656 3.19137 12.6972L4.25137 13.7572L12.0314 21.5372L19.8114 13.7572L20.8714 12.6972C21.3824 12.1865 21.7877 11.5801 22.0643 10.9126C22.3408 10.2451 22.4832 9.52973 22.4832 8.80724C22.4832 8.08476 22.3408 7.36935 22.0643 6.70189C21.7877 6.03443 21.3824 5.428 20.8714 4.91725V4.91725Z" stroke="#BFBFBF" stroke-width="2" stroke-linecap="round" stroke-linejoin="round"/>
</g>
<defs>
<clipPath id="clip0_0_96">
<rect width="24" height="24" fill="white" transform="translate(0.0313721 0.307251)"/>
</clipPath>
</defs>
</svg>
