<svg width="25" height="25" viewBox="0 0 25 25" fill="none" xmlns="http://www.w3.org/2000/svg">
<path d="M21.0314 11.8073C21.0348 13.1271 20.7264 14.4292 20.1314 15.6073C19.4258 17.019 18.3411 18.2065 16.9988 19.0366C15.6565 19.8667 14.1096 20.3067 12.5314 20.3073C11.2115 20.3107 9.90949 20.0023 8.73137 19.4073L3.03137 21.3073L4.93137 15.6073C4.3363 14.4292 4.02793 13.1271 4.03137 11.8073C4.03198 10.229 4.47198 8.68213 5.30209 7.33983C6.1322 5.99753 7.31963 4.91285 8.73137 4.20728C9.90949 3.61221 11.2115 3.30384 12.5314 3.30728H13.0314C15.1157 3.42227 17.0844 4.30204 18.5605 5.77814C20.0366 7.25424 20.9164 9.22293 21.0314 11.3073V11.8073Z" stroke="#BFBFBF" stroke-width="2" stroke-linecap="round" stroke-linejoin="round"/>
</svg>
