<svg width="25" height="25" viewBox="0 0 25 25" fill="none" xmlns="http://www.w3.org/2000/svg">
<path d="M6.03137 2.71402L3.03137 6.71402V20.714C3.03137 21.2445 3.24209 21.7532 3.61716 22.1282C3.99223 22.5033 4.50094 22.714 5.03137 22.714H19.0314C19.5618 22.714 20.0705 22.5033 20.4456 22.1282C20.8207 21.7532 21.0314 21.2445 21.0314 20.714V6.71402L18.0314 2.71402H6.03137Z" stroke="#818AF9" stroke-width="2" stroke-linecap="round" stroke-linejoin="round"/>
<path d="M3.03137 6.71402H21.0314" stroke="#818AF9" stroke-width="2" stroke-linecap="round" stroke-linejoin="round"/>
<path d="M16.0314 10.714C16.0314 11.7749 15.6099 12.7923 14.8598 13.5424C14.1097 14.2926 13.0922 14.714 12.0314 14.714C10.9705 14.714 9.95309 14.2926 9.20294 13.5424C8.4528 12.7923 8.03137 11.7749 8.03137 10.714" stroke="#818AF9" stroke-width="2" stroke-linecap="round" stroke-linejoin="round"/>
</svg>
